<svg width="6" height="6" viewBox="0 0 6 6" fill="none" xmlns="http://www.w3.org/2000/svg">
<g clip-path="url(#clip0)">
<path fill-rule="evenodd" clip-rule="evenodd" d="M0.596223 2.4641C0.613061 2.44684 0.633064 2.43314 0.655086 2.42379C0.677109 2.41445 0.700717 2.40964 0.72456 2.40964C0.748403 2.40964 0.772012 2.41445 0.794034 2.42379C0.816056 2.43314 0.836059 2.44684 0.852897 2.4641L2.89977 4.5578L4.94664 2.4641C4.98068 2.42929 5.02684 2.40973 5.07498 2.40973C5.12311 2.40973 5.16928 2.42929 5.20331 2.4641C5.23735 2.49891 5.25647 2.54612 5.25647 2.59535C5.25647 2.64458 5.23735 2.69179 5.20331 2.7266L3.02811 4.95118C3.01127 4.96844 2.99126 4.98214 2.96924 4.99148C2.94722 5.00083 2.92361 5.00564 2.89977 5.00564C2.87592 5.00564 2.85232 5.00083 2.83029 4.99148C2.80827 4.98214 2.78827 4.96844 2.77143 4.95118L0.596223 2.7266C0.579342 2.70938 0.565949 2.68892 0.556811 2.6664C0.547673 2.64388 0.542969 2.61973 0.542969 2.59535C0.542969 2.57097 0.547673 2.54682 0.556811 2.5243C0.565949 2.50178 0.579342 2.48132 0.596223 2.4641Z" fill="black"/>
<path fill-rule="evenodd" clip-rule="evenodd" d="M0.596223 0.981037C0.613061 0.963774 0.633064 0.950077 0.655086 0.940731C0.677109 0.931385 0.700717 0.926575 0.72456 0.926575C0.748403 0.926575 0.772012 0.931385 0.794034 0.940731C0.816056 0.950077 0.836059 0.963774 0.852897 0.981037L2.89977 3.07473L4.94664 0.981037C4.96349 0.963801 4.9835 0.950129 5.00552 0.940801C5.02754 0.931473 5.05114 0.926672 5.07498 0.926672C5.09881 0.926672 5.12241 0.931473 5.14443 0.940801C5.16645 0.950129 5.18646 0.963801 5.20331 0.981037C5.22017 0.998273 5.23354 1.01874 5.24266 1.04126C5.25178 1.06378 5.25647 1.08791 5.25647 1.11229C5.25647 1.13666 5.25178 1.1608 5.24266 1.18332C5.23354 1.20584 5.22017 1.2263 5.20331 1.24354L3.02811 3.46811C3.01127 3.48538 2.99126 3.49907 2.96924 3.50842C2.94722 3.51777 2.92361 3.52258 2.89977 3.52258C2.87592 3.52258 2.85232 3.51777 2.83029 3.50842C2.80827 3.49907 2.78827 3.48538 2.77143 3.46811L0.596223 1.24354C0.579342 1.22632 0.565949 1.20586 0.556811 1.18334C0.547673 1.16082 0.542969 1.13667 0.542969 1.11229C0.542969 1.0879 0.547673 1.06376 0.556811 1.04124C0.565949 1.01871 0.579342 0.998258 0.596223 0.981037Z" fill="black"/>
</g>
<defs>
<clipPath id="clip0">
<rect width="5.80055" height="5.9322" fill="white"/>
</clipPath>
</defs>
</svg>
