<svg width="119" height="119" viewBox="0 0 119 119" fill="none" xmlns="http://www.w3.org/2000/svg">
<g clip-path="url(#clip0)">
<path d="M116.822 9.06394L109.935 2.17728C109.244 1.48647 108.425 0.938475 107.522 0.564599C106.62 0.190724 105.652 -0.00170898 104.675 -0.00170898C103.699 -0.00170898 102.731 0.190724 101.829 0.564599C100.926 0.938475 100.106 1.48647 99.4157 2.17728L88.6593 12.9454C87.7576 13.8446 87.0787 14.9422 86.6767 16.1505L83.8504 24.6362L66.126 42.3607C63.2997 40.3247 60.1992 38.7024 56.8058 37.9121C49.0313 36.1039 41.2336 37.7076 35.9158 43.0254C33.7464 45.2036 32.1329 47.8717 31.2115 50.8046C29.817 55.1183 25.817 58.4025 21.415 58.8139C15.9066 59.3414 10.7863 61.4751 6.86303 65.4239C-3.7447 76.0014 -1.83652 95.06 11.0582 107.948C23.953 120.836 42.9977 122.718 53.5868 112.148C57.538 108.224 59.667 103.106 60.1992 97.5725C60.6083 93.1914 63.8924 89.1751 68.2015 87.7783C71.1348 86.8553 73.8035 85.2411 75.983 83.0717C81.2985 77.7539 82.8952 69.9724 81.0963 62.2119C80.3083 58.8092 78.686 55.704 76.6431 52.8685L94.3629 35.1487L102.842 32.3224C104.05 31.9205 105.148 31.2415 106.047 30.3398L116.815 19.5741C118.208 18.1805 118.991 16.291 118.993 14.3204C118.994 12.3499 118.213 10.4593 116.822 9.06394ZM48.3434 81.812C46.1369 81.812 43.9799 81.1577 42.1453 79.9318C40.3106 78.706 38.8807 76.9636 38.0363 74.925C37.1919 72.8865 36.971 70.6434 37.4015 68.4793C37.8319 66.3152 38.8945 64.3273 40.4547 62.7671C42.0149 61.2068 44.0028 60.1443 46.1669 59.7139C48.331 59.2834 50.5741 59.5043 52.6127 60.3487C54.6512 61.1931 56.3936 62.623 57.6194 64.4577C58.8453 66.2923 59.4996 68.4492 59.4996 70.6557C59.4996 73.6146 58.3242 76.4522 56.232 78.5444C54.1398 80.6366 51.3022 81.812 48.3434 81.812Z" fill="#25B0C3"/>
</g>
<defs>
<clipPath id="clip0">
<rect width="119" height="119" fill="white"/>
</clipPath>
</defs>
</svg>
