<?xml version="1.0" encoding="UTF-8" standalone="no"?>
<svg
   xmlns:dc="http://purl.org/dc/elements/1.1/"
   xmlns:cc="http://creativecommons.org/ns#"
   xmlns:rdf="http://www.w3.org/1999/02/22-rdf-syntax-ns#"
   xmlns:svg="http://www.w3.org/2000/svg"
   xmlns="http://www.w3.org/2000/svg"
   xmlns:sodipodi="http://sodipodi.sourceforge.net/DTD/sodipodi-0.dtd"
   xmlns:inkscape="http://www.inkscape.org/namespaces/inkscape"
   viewBox="0 0 500 500"
   version="1.1"
   id="svg552"
   sodipodi:docname="img-topo-piano_2.svg"
   inkscape:version="1.0.2-2 (e86c870879, 2021-01-15)">
  <metadata
     id="metadata558">
    <rdf:RDF>
      <cc:Work
         rdf:about="">
        <dc:format>image/svg+xml</dc:format>
        <dc:type
           rdf:resource="http://purl.org/dc/dcmitype/StillImage" />
        <dc:title></dc:title>
      </cc:Work>
    </rdf:RDF>
  </metadata>
  <defs
     id="defs556" />
  <sodipodi:namedview
     pagecolor="#ffffff"
     bordercolor="#666666"
     borderopacity="1"
     objecttolerance="10"
     gridtolerance="10"
     guidetolerance="10"
     inkscape:pageopacity="0"
     inkscape:pageshadow="2"
     inkscape:window-width="1543"
     inkscape:window-height="997"
     id="namedview554"
     showgrid="false"
     inkscape:zoom="2.4069915"
     inkscape:cx="264.04845"
     inkscape:cy="222.2252"
     inkscape:window-x="0"
     inkscape:window-y="0"
     inkscape:window-maximized="0"
     inkscape:current-layer="freepik--Character--inject-35" />
  <g
     id="freepik--Shadow--inject-35"
     transform="matrix(1, 0, 0, 1, 16.407122, -26.949786)">
    <ellipse
       id="freepik--path--inject-35"
       cx="250"
       cy="416.24"
       rx="193.89"
       ry="11.32"
       style="fill:#f5f5f5" />
  </g>
  <g
     id="freepik--Piano--inject-35"
     transform="matrix(1, 0, 0, 1, 16.407122, -26.949786)">
    <path
       d="M217.46,196.74h-2.34v3.48h2.34v26.15h-2l-9.22,43.79-42,6.1v19.4h3.51v111h-3.51v6.79h53.21v.25H397.18V196.74Zm-42.69,209.9v-111h42.69v111Z"
       style="fill:#69B3C0"
       id="path287" />
    <polygon
       points="217.46 295.66 347.46 295.66 347.46 360.48 217.46 399.82 217.46 295.66"
       style="opacity:0.30000000000000004;isolation:isolate"
       id="polygon289" />
    <path
       d="M347.46,196.74h-2.34v3.48h2.34v26.15h-2l-9.22,43.79-42,6.1v19.4h3.51v111h-3.51v6.79h53.21v.25h49.72V196.74Zm-42.69,209.9v-111h42.69v111Z"
       style="fill:#69B3C0"
       id="path291" />
    <path
       d="M347.46,196.74h-2.34v3.48h2.34v26.15h-2l-9.22,43.79-42,6.1v19.4h3.51v111h-3.51v6.79h53.21v.25h49.72V196.74Zm-42.69,209.9v-111h42.69v111Z"
       style="opacity:0.2;isolation:isolate"
       id="path293" />
    <rect
       x="167.76"
       y="295.66"
       width="7.01"
       height="110.98"
       style="opacity:0.2;isolation:isolate"
       id="rect295" />
    <rect
       x="297.76"
       y="295.66"
       width="7.01"
       height="110.98"
       style="opacity:0.2;isolation:isolate"
       id="rect297" />
    <polygon
       points="217.46 200.22 347.46 200.22 347.46 204.84 217.46 202.5 217.46 200.22"
       style="opacity:0.2;isolation:isolate"
       id="polygon299" />
    <polygon
       points="217.46 226.37 347.46 226.37 217.46 225.11 217.46 226.37"
       style="opacity:0.2;isolation:isolate"
       id="polygon301" />
    <polygon
       points="168.58 282.66 290.96 282.66 290.96 275.38 309.81 272.98 195.75 272.98 168.58 276.93 168.58 282.66"
       style="opacity:0.2;isolation:isolate"
       id="polygon303" />
    <polygon
       points="206.21 270.16 336.21 270.16 297.76 265.2 303.77 232.1 248.36 232.1 239.79 268.76 206.21 270.16"
       style="opacity:0.2;isolation:isolate"
       id="polygon305" />
    <polygon
       points="173.62 281.62 290.96 281.62 290.96 276.88 196.11 276.88 173.62 280.25 173.62 281.62"
       style="fill:#fff"
       id="polygon307" />
    <rect
       x="173.62"
       y="280.25"
       width="117.33"
       height="1.37"
       style="opacity:0.1;isolation:isolate"
       id="rect309" />
    <polygon
       points="198.94 276.27 190.24 278.02 190.24 278.52 193.51 278.52 201.32 276.88 201.32 276.27 198.94 276.27"
       style="fill:#263238"
       id="polygon311" />
    <polygon
       points="207.02 276.27 198.32 278.02 198.32 278.52 201.58 278.52 209.4 276.88 209.4 276.27 207.02 276.27"
       style="fill:#263238"
       id="polygon313" />
    <polygon
       points="215.1 276.27 206.4 278.02 206.4 278.52 209.66 278.52 217.47 276.88 217.47 276.27 215.1 276.27"
       style="fill:#263238"
       id="polygon315" />
    <polygon
       points="223.18 276.27 214.47 278.02 214.47 278.52 217.74 278.52 225.55 276.88 225.55 276.27 223.18 276.27"
       style="fill:#263238"
       id="polygon317" />
    <polygon
       points="231.25 276.27 222.55 278.02 222.55 278.52 225.81 278.52 233.63 276.88 233.63 276.27 231.25 276.27"
       style="fill:#263238"
       id="polygon319" />
    <polygon
       points="239.33 276.27 230.63 278.02 230.63 278.52 233.89 278.52 241.7 276.88 241.7 276.27 239.33 276.27"
       style="fill:#263238"
       id="polygon321" />
    <polygon
       points="247.41 276.27 238.7 278.02 238.7 278.52 241.97 278.52 249.78 276.88 249.78 276.27 247.41 276.27"
       style="fill:#263238"
       id="polygon323" />
    <polygon
       points="255.48 276.27 246.78 278.02 246.78 278.52 250.04 278.52 257.86 276.88 257.86 276.27 255.48 276.27"
       style="fill:#263238"
       id="polygon325" />
    <polygon
       points="263.56 276.27 254.86 278.02 254.86 278.52 258.12 278.52 265.93 276.88 265.93 276.27 263.56 276.27"
       style="fill:#263238"
       id="polygon327" />
    <polygon
       points="271.64 276.27 262.93 278.02 262.93 278.52 266.2 278.52 274.01 276.88 274.01 276.27 271.64 276.27"
       style="fill:#263238"
       id="polygon329" />
    <polygon
       points="279.71 276.27 271.01 278.02 271.01 278.52 274.27 278.52 282.09 276.88 282.09 276.27 279.71 276.27"
       style="fill:#263238"
       id="polygon331" />
    <polygon
       points="287.79 276.27 279.09 278.02 279.09 278.52 282.35 278.52 290.17 276.88 290.17 276.27 287.79 276.27"
       style="fill:#263238"
       id="polygon333" />
    <path
       d="M380.12,152.75c-1.34-2.21-3.54-.29-3.54-.29.31-4.22-3.57-7.11-3.57-7.11s4.51,0,5.14-4.31-1.57-2.3-3.64-2.33-4.23,6-1.5,9.41,2,9.19-4.3,14.77a12.3,12.3,0,0,0-3.29,5.13c.48-5.12.75-12.34-.76-17.16-2.56-8.18,2.32-10.39,3.73-14.48s-3.73-7.55-3.73-7.55,4.83-2.21,2.47-4.73-7.24-2.17-7.24,1.12,3.31,4.55,3.31,4.55,3.78,3.93,3.78,6-3.78,6.45-3.78,6.45,1.73-3.77-1.73-3.93-4.57,4.41-3.15,6.45,3.78.32,3.78.32a39.57,39.57,0,0,0,1.08,7.08c.35,1.18.19,5.79-.11,10.59a11.84,11.84,0,0,0-3.07-4.54c-6.29-5.58-7-11.38-4.3-14.77s.57-9.44-1.5-9.41-4.27-2-3.64,2.33,5.14,4.31,5.14,4.31-3.88,2.89-3.57,7.11c0,0-2.2-1.92-3.54.29-2.39,3.93,3.15,6.37,4.08,4.43,0,0,11.74,8.31,8.91,20.28l.66,1c-.09,1-.14,1.54-.14,1.54l.92-.39,1,1.54a36,36,0,0,0,.27,5.2l2.8-4.14c-2.83-12,8.91-20.27,8.91-20.27C377,159.12,382.51,156.68,380.12,152.75Z"
       style="fill:#69B3C0"
       id="path335" />
    <path
       d="M380.12,152.75c-1.34-2.21-3.54-.29-3.54-.29.31-4.22-3.57-7.11-3.57-7.11s4.51,0,5.14-4.31-1.57-2.3-3.64-2.33-4.23,6-1.5,9.41,2,9.19-4.3,14.77a12.3,12.3,0,0,0-3.29,5.13c.48-5.12.75-12.34-.76-17.16-2.56-8.18,2.32-10.39,3.73-14.48s-3.73-7.55-3.73-7.55,4.83-2.21,2.47-4.73-7.24-2.17-7.24,1.12,3.31,4.55,3.31,4.55,3.78,3.93,3.78,6-3.78,6.45-3.78,6.45,1.73-3.77-1.73-3.93-4.57,4.41-3.15,6.45,3.78.32,3.78.32a39.57,39.57,0,0,0,1.08,7.08c.35,1.18.19,5.79-.11,10.59a11.84,11.84,0,0,0-3.07-4.54c-6.29-5.58-7-11.38-4.3-14.77s.57-9.44-1.5-9.41-4.27-2-3.64,2.33,5.14,4.31,5.14,4.31-3.88,2.89-3.57,7.11c0,0-2.2-1.92-3.54.29-2.39,3.93,3.15,6.37,4.08,4.43,0,0,11.74,8.31,8.91,20.28l.66,1c-.09,1-.14,1.54-.14,1.54l.92-.39,1,1.54a36,36,0,0,0,.27,5.2l2.8-4.14c-2.83-12,8.91-20.27,8.91-20.27C377,159.12,382.51,156.68,380.12,152.75Z"
       style="opacity:0.2;isolation:isolate"
       id="path337" />
    <polygon
       points="373.01 196.34 369.22 174.66 370.29 168.34 358.36 168.34 359.43 174.66 355.65 196.34 373.01 196.34"
       style="fill:#69B3C0"
       id="polygon339" />
    <polygon
       points="373.01 196.34 369.22 174.66 370.29 168.34 358.36 168.34 359.43 174.66 355.65 196.34 373.01 196.34"
       style="fill:#fff;opacity:0.5;isolation:isolate"
       id="polygon341" />
    <polygon
       points="266.62 177.16 273.29 196.74 253.84 196.74 266.62 177.16"
       style="fill:#69B3C0"
       id="polygon343" />
    <polygon
       points="266.62 177.16 273.29 196.74 253.84 196.74 266.62 177.16"
       style="opacity:0.30000000000000004;isolation:isolate"
       id="polygon345" />
    <polygon
       points="266.74 196.94 244.5 196.95 250.57 168.25 272.82 168.24 266.74 196.94"
       style="fill:#69B3C0"
       id="polygon347" />
    <polygon
       points="266.74 196.94 244.5 196.95 250.57 168.25 272.82 168.24 266.74 196.94"
       style="opacity:0.2;isolation:isolate"
       id="polygon349" />
    <polygon
       points="265.22 195.59 246.61 195.49 252.09 169.6 270.71 169.7 265.22 195.59"
       style="fill:#fff;opacity:0.5;isolation:isolate"
       id="polygon351" />
    <path
       d="M259,171.76s-3.22,1.21-6.13,8.61c-2,5.08,2,5.23,2,5.23s-.53,3.85-1.55,4.72c-1.61,1.36-5.91,1.34-5.91,1.34l-.81,3.83,18.61.1.84-4s-5.37-.41-5.74-1.28,1.29-5.49,1.29-5.49l1.79-2.25s4-4.33,3.41-7.89A4.78,4.78,0,0,0,259,171.76Z"
       style="fill:#fff;opacity:0.2;isolation:isolate"
       id="path353" />
  </g>
  <g
     id="freepik--Chair--inject-35"
     transform="matrix(1, 0, 0, 1, 16.407122, -26.949786)">
    <polygon
       points="146.96 330.68 147.32 346.25 148.96 416.68 154.37 416.68 156 346.25 156.36 330.68 146.96 330.68"
       style="fill:#263238"
       id="polygon356" />
    <polygon
       points="146.96 330.68 147.32 346.25 148.96 416.68 154.37 416.68 156 346.25 156.36 330.68 146.96 330.68"
       style="fill:#fff;opacity:0.4;isolation:isolate"
       id="polygon358" />
    <polygon
       points="146.96 330.68 147.32 346.68 156 346.68 156.36 330.68 146.96 330.68"
       style="opacity:0.2;isolation:isolate"
       id="polygon360" />
    <polygon
       points="117.59 416.43 122.58 331.78 130.75 331.78 123.76 416.43 117.59 416.43"
       style="fill:#263238"
       id="polygon362" />
    <polygon
       points="123.77 416.43 117.59 416.43 122.13 339.38 122.58 331.68 130.75 331.68 130.12 339.38 123.77 416.43"
       style="fill:#fff;opacity:0.5;isolation:isolate"
       id="polygon364" />
    <polygon
       points="130.75 331.68 130.12 339.68 122.13 339.68 122.58 331.68 130.75 331.68"
       style="opacity:0.2;isolation:isolate"
       id="polygon366" />
    <polygon
       points="179.58 416.43 172.58 331.78 180.75 331.78 185.75 416.43 179.58 416.43"
       style="fill:#263238"
       id="polygon368" />
    <polygon
       points="179.56 416.43 173.21 339.38 172.58 331.68 180.75 331.68 181.2 339.38 185.74 416.43 179.56 416.43"
       style="fill:#fff;opacity:0.5;isolation:isolate"
       id="polygon370" />
    <polygon
       points="172.58 331.68 173.21 339.68 181.2 339.68 180.75 331.68 172.58 331.68"
       style="opacity:0.2;isolation:isolate"
       id="polygon372" />
    <path
       d="M118.21,323h66.92a0,0,0,0,1,0,0v6.69a5,5,0,0,1-5,5H123.21a5,5,0,0,1-5-5V323a0,0,0,0,1,0,0Z"
       transform="translate(303.33 657.71) rotate(180)"
       style="fill:#69B3C0"
       id="path374" />
    <rect
       x="115"
       y="328.86"
       width="73.33"
       height="5.84"
       rx="2.01"
       transform="translate(303.33 663.56) rotate(-180)"
       style="fill:#263238"
       id="rect376" />
    <rect
       x="115"
       y="328.86"
       width="73.33"
       height="5.84"
       rx="2.01"
       transform="translate(303.33 663.56) rotate(-180)"
       style="fill:#fff;opacity:0.6000000000000001;isolation:isolate"
       id="rect378" />
  </g>
  <g
     id="freepik--Character--inject-35"
     transform="matrix(1, 0, 0, 1, 16.407122, -26.949786)">
    <path
       d="m 180.83091,192.85136 c 0,0 -4.71,-3.66 -10,-3.76 -5.29,-0.1 -17.53,3.87 -16.94,17.41 0.59,13.54 -0.39,28.28 -0.39,28.28 l 20.47,6.83 c 0,0 13.26,-22.45 14.15,-30 0.89,-7.55 -7.29,-18.76 -7.29,-18.76 z"
       style="fill:#faf0be"
       id="path381" />
    <path
       d="M224.8,264l6.42-1.85s2.37-5.45,3.16-5.69,7.14-1.52,7.14-1.52l-2.76,10.8s-3.06,1.43-4,1l-8.7,2.63Z"
       style="fill: rgb(250, 185, 153);"
       id="path383" />
    <path
       d="M179.71,236.24c6.67,5.22,14.64,26.67,22.7,29.51,5.53,1.95,25.68-3.19,25.68-3.19l2.54,6.85s-19.85,9-32.81,6.86c-11.5-1.87-25.64-19.8-25.64-19.8Z"
       style="fill:#69B3C0"
       id="path385" />
    <path
       d="M179.71,236.24c6.67,5.22,14.64,26.67,22.7,29.51,5.53,1.95,25.68-3.19,25.68-3.19l2.54,6.85s-19.85,9-32.81,6.86c-11.5-1.87-25.64-19.8-25.64-19.8Z"
       style="fill:#fff;opacity:0.5;isolation:isolate"
       id="path387" />
    <polygon
       points="188.93,262.18 196.21,277.4 194.99,279.25 187.28,263.22 "
       style="fill:#69b3c0"
       id="polygon389"
       transform="rotate(7.3776382,201.87361,291.32226)" />
    <path
       d="m 173.1,273.93 10.19,0.35 c 0,0 10,-5.41 11.43,-5.54 1.43,-0.13 5.54,4.61 5.94,5.8 0.4,1.19 -10.48,6.89 -12.65,6.71 a 4.11,4.11 0 0 1 -3.09,-1.68 l -11.3,0.68 z"
       style="fill:#fab999"
       id="path391" />
    <polygon
       points="230.45,382.95 227.12,373.88 224.1,365.62 231.59,362.43 234.47,372.44 237.03,381.37 "
       style="fill:#fab999"
       id="polygon393"
       transform="translate(0.71,-1.16)" />
    <path
       d="m 230.49,382.68 c -0.16,-0.73 8.89,-2.3 8.89,-2.3 0,0 6.82,4.25 12.44,4.22 5.62,-0.03 3.42,3.88 -2.53,5.31 l -14.71,3.55 c -4.23,1.02 -2.45,-3.22 -4.09,-10.78 z"
       style="fill:#69b3c0"
       id="path395" />
    <path
       d="M241.9,381.46a15.94,15.94,0,0,1-2.89-.34.2.2,0,0,1-.08,0h0a.13.13,0,0,1-.07-.06l0,0a.49.49,0,0,1,0-.12c0-.1.26-2.35,1.35-3.14a1.35,1.35,0,0,1,1.15-.25c.46.1.71.3.77.61.09.47-.44,1.1-1.07,1.66a3.79,3.79,0,0,1,2-.27,1,1,0,0,1,.62.49.86.86,0,0,1,0,1A2.34,2.34,0,0,1,241.9,381.46Zm-2.11-.69c1.45.24,3.2.34,3.53-.11,0,0,.12-.15,0-.48a.51.51,0,0,0-.33-.25C242.21,379.71,240.73,380.31,239.79,380.77Zm1.21-2.86a.88.88,0,0,0-.55.19,4,4,0,0,0-1.07,2.28c1.2-.82,2.31-1.82,2.24-2.23,0-.12-.26-.19-.39-.22Z"
       style="fill:#263238"
       id="path397" />
    <polygon
       points="227.12,373.88 224.1,365.62 231.59,362.43 234.47,372.44 "
       style="opacity:0.2;isolation:isolate;fill:#fab999"
       id="polygon399"
       transform="translate(0.98670894,-0.3115923)" />
    <polygon
       points="175.68 290.4 194.5 274.91 224.8 277.19 204.54 290.03 175.68 290.4"
       style="fill:#263238"
       id="polygon401" />
    <polygon
       points="175.68 290.4 194.5 274.91 224.8 277.19 204.54 290.03 175.68 290.4"
       style="fill:#fff;opacity:0.8;isolation:isolate"
       id="polygon403" />
    <path
       d="m 233.81,367.65 -9.12,3.35 c 0,0 -4.04055,-15.91901 -10.77109,-31.19192 C 207.22729,324.62349 197.85275,310.08475 195.36,310 c -5,-0.17 -55.91,23.19 -68.67,10.21 -12.76,-12.98 5.69,-44.21 5.69,-44.21 0,0 30.69,-4.38 33,2.55 0.56853,2.04276 1.00279,4.12053 1.3,6.22 0.35,2.12 0.59,3.9 0.59,3.9 v 0 c 1,-0.24 31.76,-8.19 43.9,0 5.77347,3.89417 12.75856,20.57712 16.7908,38.12556 4.59309,19.98933 5.8492,40.85444 5.8492,40.85444 z"
       style="fill:#263238"
       id="path405"
       sodipodi:nodetypes="ccsssccccscsc" />
    <polygon
       points="181.35 407.32 174.8 405.64 176.06 396.24 177.23 387.62 185.33 388.35 183.23 398.39 181.35 407.32"
       style="fill: rgb(250, 185, 153);"
       id="polygon407" />
    <path
       d="M173,405.33c0-.75,9.18-.06,9.18-.06s5.57,5.8,11,7.16,2.36,4.6-3.76,4.53l-15.14-.18C170,416.72,172.76,413.05,173,405.33Z"
       style="fill:#69B3C0"
       id="path409" />
    <path
       d="M187,407.68a11.37,11.37,0,0,1-3.81-1.21h0l-.06-.05a.22.22,0,0,1-.05-.08h0a.13.13,0,0,1,0-.06h0a.21.21,0,0,1,0-.11c0-.1.83-2.22,2.08-2.72a1.39,1.39,0,0,1,1.18.05c.42.2.62.46.6.77,0,.48-.7,1-1.45,1.35a3.7,3.7,0,0,1,2.06.25,1,1,0,0,1,.48.62.89.89,0,0,1-.24,1A1.21,1.21,0,0,1,187,407.68Zm-3-1.35c1.34.58,3,1.11,3.45.76,0,0,.16-.12.07-.48a.52.52,0,0,0-.26-.33C186.66,405.9,185.09,406.11,184.06,406.33Zm1.66-2.51a.94.94,0,0,0-.36.08,4,4,0,0,0-1.6,2c1.37-.5,2.69-1.2,2.71-1.61,0-.13-.19-.25-.32-.31A1,1,0,0,0,185.72,403.82Z"
       style="fill:#263238"
       id="path411" />
    <polygon
       points="183.18 398.59 176.01 396.42 177.21 387.71 185.32 388.39 183.18 398.59"
       style="opacity: 0.2; isolation: isolate; fill: rgb(250, 185, 153);"
       id="polygon413" />
    <polygon
       points="234.21,363.15 234.77,368.6 224.7,372.16 220.92,367.67 "
       style="fill:#69b3c0"
       id="polygon415"
       transform="translate(-0.01,-1.16)" />
    <path
       d="M148.73,323.33s2.08.05,34.27-1.45c0,0-4.81,40.25-7.44,70.38l9.63,1.64s23-64.52,22.75-74.77-12-13.25-12-13.25S173,319.13,148.73,323.33Z"
       style="fill:#263238"
       id="path417" />
    <path
       d="M148.73,323.33s2.08.05,34.27-1.45c0,0-4.81,40.25-7.44,70.38l9.63,1.64s23-64.52,22.75-74.77-12-13.25-12-13.25S173,319.13,148.73,323.33Z"
       style="opacity:0.30000000000000004;isolation:isolate"
       id="path419" />
    <polygon
       points="174.15 389.34 187.38 390.84 184.83 396.03 174.12 394.65 174.15 389.34"
       style="fill:#69B3C0"
       id="polygon421" />
    <path
       d="M167.27,288.64l-18,3.74s9.92-5.48,17.36-7.64C167,286.86,167.27,288.64,167.27,288.64Z"
       style="opacity:0.30000000000000004;isolation:isolate"
       id="path423" />
    <polygon
       points="133.12 271.2 132.38 275.98 165.38 278.52 166.25 272.88 133.12 271.2"
       style="fill:#263238"
       id="polygon425" />
    <polygon
       points="133.12 271.2 132.38 275.98 165.38 278.52 166.25 272.88 133.12 271.2"
       style="opacity:0.2;isolation:isolate"
       id="polygon427" />
    <rect
       x="142.32"
       y="270.78"
       width="1.64"
       height="8.35"
       transform="translate(28.87 -13.2) rotate(5.87)"
       style="fill:#263238"
       id="rect429" />
    <rect
       x="151.12"
       y="272.63"
       width="7.24"
       height="5.49"
       transform="matrix(1, 0.06, -0.06, 1, 17.98, -9.36)"
       style="fill:#fff"
       id="rect431" />
    <rect
       x="162.58"
       y="271.68"
       width="1.64"
       height="8.35"
       transform="translate(29.09 -15.27) rotate(5.87)"
       style="fill:#263238"
       id="rect433" />
    <path
       d="M134.12,271.2S130.75,243,141.46,225c0,0,22.94-9.11,38.25,11.24,0,0,2.29,20.6-1.51,24.61s-11.47,15.42-11.47,15.42Z"
       style="fill:#69B3C0"
       id="path435" />
    <path
       d="M134.12,271.2S130.75,243,141.46,225c0,0,22.94-9.11,38.25,11.24,0,0,2.29,20.6-1.51,24.61s-11.47,15.42-11.47,15.42Z"
       style="fill:#fff;opacity:0.6000000000000001;isolation:isolate"
       id="path437" />
    <path
       d="M141.46,225c10.8-2.7,9.09,37.63,10.9,42.57S179.3,273,179.3,273l-.53,8.64s-28.8,2.32-36.71-4.22S131.35,227.52,141.46,225Z"
       style="fill:#69B3C0"
       id="path439" />
    <path
       d="M141.46,225c10.8-2.7,9.09,37.63,10.9,42.57S179.3,273,179.3,273l-.53,8.64s-28.8,2.32-36.71-4.22S131.35,227.52,141.46,225Z"
       style="fill:#fff;opacity:0.5;isolation:isolate"
       id="path441" />
    <path
       d="m 173.01091,189.96136 c 0,0 3.24,-3.36 9.52,0 6.28,3.36 16.35,11.76 12.4,24.67 -3.95,12.91 -8.89,26.36 -6.82,32.69 2.07,6.33 -4.66,6.57 -4.66,6.57 0,0 3.32,-1 2.26,-5.28 -1.06,-4.28 0,-19.68 0,-19.68 0,0 -3.83,11 -7.59,9 -3.76,-2 -6.73,-9.89 -13.95,-12.43 -5.34,-1.85 8.84,-35.54 8.84,-35.54 z"
       style="fill:#faf0be"
       id="path443" />
    <path
       d="M167.27,256.67a.25.25,0,0,1-.23-.15c-.58-1.26-14.33-31-14.63-33.36a.23.23,0,0,1,.09-.22.22.22,0,0,1,.23-.05c.57.18,13.91,4.42,16.08,9.1s-1.15,23.67-1.3,24.47a.24.24,0,0,1-.21.21ZM153,223.5c1,3.36,9.38,21.75,14.15,32.08.61-3.72,3-19.39,1.19-23.38S155.34,224.28,153,223.5Z"
       style="fill:#263238"
       id="path445" />
    <path
       d="M152.66,223.13a19.07,19.07,0,0,1,4.46-2.44c2.76-1.09,9.8,4.75,10.77,7.08s-6,4.79-6,4.79Z"
       style="fill:#69B3C0"
       id="path447" />
    <path
       d="M152.66,223.13a19.07,19.07,0,0,1,4.46-2.44c2.76-1.09,9.8,4.75,10.77,7.08s-6,4.79-6,4.79Z"
       style="fill:#fff;opacity:0.30000000000000004;isolation:isolate"
       id="path449" />
    <path
       d="M166.41,226.54c-.14,2,.93,2.54.93,2.54a4,4,0,0,1-4.76,4.16c-6.11-1.24-7.33-8.86-7.33-8.86,4.67-1.34,6.16-6.19,6.64-9.12a16,16,0,0,0,.22-2.31l7.88,6.11a29.29,29.29,0,0,0-2.24,3.49A10.38,10.38,0,0,0,166.41,226.54Z"
       style="fill: rgb(250, 185, 153);"
       id="path451" />
    <path
       d="m 170.83091,218.02136 a 29.29,29.29 0 0 0 -2.24,3.49 10.38,10.38 0 0 0 -1.34,4 c -4.72,-0.57 -4.49,-11.21 -4.49,-11.21 v -0.07 a 16,16 0 0 0 0.22,-2.31 z"
       style="opacity:0.2;isolation:isolate"
       id="path453" />
    <path
       d="M157.12,220.69s4,5.77,7.13,7.08,3.64,0,3.64,0l1.58,3.8s0,5.91-6.85,5.94c-5.61,0-10-14.38-10-14.38Z"
       style="fill:#69B3C0"
       id="path455" />
    <path
       d="M157.12,220.69s4,5.77,7.13,7.08,3.64,0,3.64,0l1.58,3.8s0,5.91-6.85,5.94c-5.61,0-10-14.38-10-14.38Z"
       style="fill:#fff;opacity:0.5;isolation:isolate"
       id="path457" />
    <path
       d="m 180.13091,197.08136 c 7.76,3.52 8.37,8.81 5.31,17.07 -3.82,10.32 -7.8059,15.78682 -18,9.87 -11.86,-8.88 -3.31592,-29.57021 12.69,-26.94 z"
       style="fill:#fab999"
       id="path459"
       sodipodi:nodetypes="cccc" />
    <path
       d="m 180.62091,211.44136 a 18.2,18.2 0 0 0 0.8,4.24 2.36,2.36 0 0 1 -2.45,-0.05 z"
       style="fill:#c08f77"
       id="path461" />
    <path
       d="m 176.16091,208.64136 c -0.28,0.65 -0.85,1 -1.28,0.84 -0.43,-0.16 -0.55,-0.85 -0.28,-1.5 0.27,-0.65 0.85,-1 1.28,-0.83 0.43,0.17 0.55,0.81 0.28,1.49 z"
       style="fill:#263238"
       id="path463" />
    <path
       d="m 175.68091,207.10136 1.64,0.05 c 0,0 -1.2,0.88 -1.64,-0.05 z"
       style="fill:#263238"
       id="path465" />
    <path
       d="m 184.23091,211.96136 c -0.28,0.65 -0.85,1 -1.28,0.84 -0.43,-0.16 -0.55,-0.86 -0.28,-1.5 0.27,-0.64 0.85,-1 1.28,-0.84 0.43,0.16 0.55,0.82 0.28,1.5 z"
       style="fill:#263238"
       id="path467" />
    <path
       d="m 183.75091,210.38136 1.64,0.05 c 0,0 -1.2,0.88 -1.64,-0.05 z"
       style="fill:#263238"
       id="path469" />
    <path
       d="m 178.51091,203.61136 a 0.45,0.45 0 0 1 -0.19,-0.05 4.1,4.1 0 0 0 -3.55,-0.34 0.36224991,0.36224991 0 0 1 -0.32,-0.65 4.77,4.77 0 0 1 4.25,0.37 0.36,0.36 0 0 1 0.12,0.5 0.37,0.37 0 0 1 -0.31,0.17 z"
       style="fill:#263238"
       id="path471" />
    <path
       d="m 187.11091,207.89136 a 0.38,0.38 0 0 1 -0.31,-0.18 3.65,3.65 0 0 0 -2.52,-1.87 0.36086701,0.36086701 0 1 1 0.05,-0.72 4.35,4.35 0 0 1 3.09,2.21 0.37,0.37 0 0 1 -0.12,0.5 0.35,0.35 0 0 1 -0.19,0.06 z"
       style="fill:#263238"
       id="path473" />
    <path
       d="m 165.71091,206.31136 c 0,0 6.52,-4.73 8.21,-9.9 0,0 18.23,0.69 11.9,16.65 0,0 7.8,-13.18 -5.41,-19.55 -13.21,-6.37 -22,13.19 -17.75,22.13 0,0 -1.01,-6.36 3.05,-9.33 z"
       style="fill:#faf0be"
       id="path475" />
    <path
       d="m 166.23091,208.52136 a 3.73,3.73 0 0 0 -2.25,-4.77 c -2.53,-0.83 -5.91,3.59 -0.47,7.49 0.78,0.56 1.65,-0.06 2.72,-2.72 z"
       style="fill:#fab999"
       id="path477" />
    <path
       d="m 176.68091,219.04136 h -0.06 a 4.53,4.53 0 0 1 -4,-4.39 0.36,0.36 0 0 1 0.36,-0.36 v 0 a 0.36,0.36 0 0 1 0.36,0.36 3.75,3.75 0 0 0 3.37,3.67 0.37,0.37 0 0 1 0.3,0.42 0.36,0.36 0 0 1 -0.33,0.3 z"
       style="fill:#263238"
       id="path479" />
    <path
       d="M179.5,241.81h-.21c-1.66-.06-3-2.42-4.21-4.7a11.9,11.9,0,0,0-2.49-3.6.25.25,0,0,1,.29-.41c.92.63,1.75,2.15,2.64,3.77,1.13,2,2.41,4.39,3.79,4.44a4.26,4.26,0,0,0,3.37-1.34c3.53-3.63,3-13.3,3-13.39a.26.26,0,0,1,.23-.27.24.24,0,0,1,.27.23c0,.41.58,10-3.1,13.77A4.78,4.78,0,0,1,179.5,241.81Z"
       style="fill: rgb(250, 240, 190);"
       id="path481" />
    <path
       d="M183.54,258.23a.25.25,0,0,1,0-.5,4.11,4.11,0,0,0,3.59-3.64c.1-.92.1-2.15.11-3.56,0-3.84.06-9.1,1.91-14.37,2.49-7.12,6.21-24.72,4.55-29.13a.25.25,0,1,1,.46-.17c1.71,4.5-2,22.29-4.54,29.47-1.82,5.18-1.85,10.4-1.88,14.2,0,1.43,0,2.66-.12,3.62a4.68,4.68,0,0,1-4,4.08Z"
       style="fill: rgb(250, 240, 190);"
       id="path483" />
    <path
       d="M167.27,256.42a11.78,11.78,0,0,1,1.31,4.62C168.48,262.92,164,262.58,167.27,256.42Z"
       style="fill:#69B3C0"
       id="path485" />
    <path
       d="m 230.49,382.68 c -0.16,-0.73 8.89,-2.3 8.89,-2.3 0,0 6.82,4.25 12.44,4.22 5.62,-0.03 3.42,3.88 -2.53,5.31 l -14.71,3.55 c -4.23,1.02 -2.45,-3.22 -4.09,-10.78 z"
       style="opacity:0.6;isolation:isolate;fill:#ffffff"
       id="path487" />
    <path
       d="M173,405.33c0-.75,9.18-.06,9.18-.06s5.57,5.8,11,7.16,2.36,4.6-3.76,4.53l-15.14-.18C170,416.72,172.76,413.05,173,405.33Z"
       style="fill:#fff;opacity:0.6000000000000001;isolation:isolate"
       id="path489" />
    <path
       d="M302.43,229.2,294.91,268s-22.09.1-30,2.12c0,0-17.32-3-26.48-3l9.7-38c.39-.13,18.46.26,25.19,2.9C273.29,232.1,291.48,228.94,302.43,229.2Z"
       style="fill:#f5f5f5"
       id="path491" />
    <path
       d="M273.29,232.1l-8.41,38.06s-17.32-3-26.48-3l9.7-38C248.49,229.07,266.56,229.46,273.29,232.1Z"
       style="opacity:0.1;isolation:isolate"
       id="path493" />
    <g
       style="opacity:0.2;isolation:isolate"
       id="g497">
      <path
         d="M269.46,236.49l-.12,0c-5.22-2.78-19.2-2.91-19.34-2.91a.25.25,0,0,1,0-.5h0c.58,0,14.25.13,19.58,3a.25.25,0,0,1,.1.34A.23.23,0,0,1,269.46,236.49Z"
         id="path495" />
    </g>
    <g
       style="opacity:0.2;isolation:isolate"
       id="g501">
      <path
         d="M276.55,236.49a.26.26,0,0,1-.25-.2.25.25,0,0,1,.2-.29c.65-.12,15.79-2.88,21.29-2.19a.25.25,0,1,1-.06.5c-5.43-.68-21,2.15-21.14,2.18Z"
         id="path499" />
    </g>
    <g
       style="opacity:0.2;isolation:isolate"
       id="g505">
      <path
         d="M268.4,241.08a.2.2,0,0,1-.11,0c-5.23-2.78-19.21-2.91-19.35-2.91a.26.26,0,0,1-.25-.26.25.25,0,0,1,.25-.24h0c.58,0,14.25.13,19.58,3a.25.25,0,0,1,.11.33A.27.27,0,0,1,268.4,241.08Z"
         id="path503" />
    </g>
    <g
       style="opacity:0.2;isolation:isolate"
       id="g509">
      <path
         d="M275.49,241.08a.25.25,0,0,1,0-.5c.64-.12,15.78-2.87,21.28-2.18a.25.25,0,0,1,.22.28.25.25,0,0,1-.28.21c-5.43-.68-21,2.15-21.13,2.18Z"
         id="path507" />
    </g>
    <g
       style="opacity:0.2;isolation:isolate"
       id="g513">
      <path
         d="M267.35,245.66a.27.27,0,0,1-.12,0c-5.23-2.78-19.21-2.91-19.35-2.91a.24.24,0,0,1-.24-.25.25.25,0,0,1,.25-.25h0c.58,0,14.24.13,19.57,3a.25.25,0,0,1,.11.34A.26.26,0,0,1,267.35,245.66Z"
         id="path511" />
    </g>
    <g
       style="opacity:0.2;isolation:isolate"
       id="g517">
      <path
         d="M274.43,245.66a.25.25,0,0,1-.24-.2.25.25,0,0,1,.2-.3c.64-.11,15.78-2.87,21.29-2.18a.25.25,0,0,1,.21.28.26.26,0,0,1-.28.22c-5.42-.69-21,2.15-21.13,2.18Z"
         id="path515" />
    </g>
    <g
       style="opacity:0.2;isolation:isolate"
       id="g521">
      <path
         d="M266.29,250.24l-.12,0c-5.22-2.78-19.2-2.91-19.34-2.91a.25.25,0,1,1,0-.5h0c.58,0,14.24.13,19.58,3a.25.25,0,0,1,.1.34A.23.23,0,0,1,266.29,250.24Z"
         id="path519" />
    </g>
    <g
       style="opacity:0.2;isolation:isolate"
       id="g525">
      <path
         d="M273.38,250.24a.25.25,0,0,1-.25-.2.25.25,0,0,1,.2-.29c.64-.12,15.79-2.88,21.29-2.19a.25.25,0,1,1-.06.5c-5.43-.68-21,2.15-21.14,2.18Z"
         id="path523" />
    </g>
    <g
       style="opacity:0.2;isolation:isolate"
       id="g529">
      <path
         d="M265.23,254.83a.2.2,0,0,1-.11,0c-5.23-2.79-19.21-2.91-19.35-2.91a.26.26,0,0,1-.25-.26.25.25,0,0,1,.25-.24h0c.58,0,14.25.13,19.58,3a.24.24,0,0,1,.1.33A.24.24,0,0,1,265.23,254.83Z"
         id="path527" />
    </g>
    <g
       style="opacity:0.2;isolation:isolate"
       id="g533">
      <path
         d="M272.32,254.83a.25.25,0,0,1,0-.5c.64-.12,15.78-2.87,21.28-2.18a.25.25,0,0,1,.22.28.26.26,0,0,1-.28.21c-5.43-.68-21,2.15-21.13,2.18Z"
         id="path531" />
    </g>
    <g
       style="opacity:0.2;isolation:isolate"
       id="g537">
      <path
         d="M264.18,259.41l-.12,0c-5.23-2.78-19.21-2.91-19.35-2.91a.25.25,0,0,1-.25-.25.26.26,0,0,1,.25-.25h0c.58,0,14.24.13,19.57,3a.25.25,0,0,1,.11.34A.26.26,0,0,1,264.18,259.41Z"
         id="path535" />
    </g>
    <g
       style="opacity:0.2;isolation:isolate"
       id="g541">
      <path
         d="M271.26,259.41a.25.25,0,0,1-.24-.2.25.25,0,0,1,.2-.3c.64-.11,15.78-2.87,21.28-2.18a.25.25,0,0,1,.22.28.26.26,0,0,1-.28.22c-5.43-.69-21,2.15-21.13,2.18Z"
         id="path539" />
    </g>
    <g
       style="opacity:0.2;isolation:isolate"
       id="g545">
      <path
         d="M263.12,264a.27.27,0,0,1-.12,0c-5.22-2.78-19.2-2.91-19.34-2.91a.25.25,0,0,1,0-.5h0c.58,0,14.24.13,19.58,3a.26.26,0,0,1,.1.34A.24.24,0,0,1,263.12,264Z"
         id="path543" />
    </g>
    <g
       style="opacity:0.2;isolation:isolate"
       id="g549">
      <path
         d="M270.21,264a.25.25,0,0,1-.25-.2.25.25,0,0,1,.2-.29c.64-.12,15.79-2.88,21.29-2.19a.25.25,0,0,1,.21.28.25.25,0,0,1-.28.22c-5.42-.69-21,2.15-21.13,2.18Z"
         id="path547" />
    </g>
  </g>
</svg>
