<svg width="389" height="306" viewBox="0 0 389 306" fill="none" xmlns="http://www.w3.org/2000/svg">
<path d="M194.408 305.61C301.49 305.61 388.298 300.542 388.298 294.29C388.298 288.038 301.49 282.97 194.408 282.97C87.3251 282.97 0.517578 288.038 0.517578 294.29C0.517578 300.542 87.3251 305.61 194.408 305.61Z" fill="#F5F5F5"/>
<path d="M161.867 74.7902H159.527V78.2702H161.867V104.42H159.867L150.647 148.21L108.647 154.31V173.71H112.157V284.71H108.647V291.5H161.857V291.75H341.587V74.7902H161.867ZM119.177 284.69V173.69H161.867V284.69H119.177Z" fill="#69B3C0"/>
<path opacity="0.3" d="M161.867 173.71H291.867V238.53L161.867 277.87V173.71Z" fill="black"/>
<path d="M291.867 74.7902H289.527V78.2702H291.867V104.42H289.867L280.647 148.21L238.647 154.31V173.71H242.157V284.71H238.647V291.5H291.857V291.75H341.577V74.7902H291.867ZM249.177 284.69V173.69H291.867V284.69H249.177Z" fill="#69B3C0"/>
<path opacity="0.2" d="M291.867 74.7902H289.527V78.2702H291.867V104.42H289.867L280.647 148.21L238.647 154.31V173.71H242.157V284.71H238.647V291.5H291.857V291.75H341.577V74.7902H291.867ZM249.177 284.69V173.69H291.867V284.69H249.177Z" fill="black"/>
<path opacity="0.2" d="M119.177 173.71H112.167V284.69H119.177V173.71Z" fill="black"/>
<path opacity="0.2" d="M249.177 173.71H242.167V284.69H249.177V173.71Z" fill="black"/>
<path opacity="0.2" d="M161.867 78.2702H291.867V82.8902L161.867 80.5502V78.2702Z" fill="black"/>
<path opacity="0.2" d="M161.867 104.42H291.867L161.867 103.16V104.42Z" fill="black"/>
<path opacity="0.2" d="M112.987 160.71H235.367V153.43L254.217 151.03H140.157L112.987 154.98V160.71Z" fill="black"/>
<path opacity="0.2" d="M150.617 148.21H280.617L242.167 143.25L248.177 110.15H192.767L184.197 146.81L150.617 148.21Z" fill="black"/>
<path d="M118.027 159.67H235.367V154.93H140.517L118.027 158.3V159.67Z" fill="white"/>
<path opacity="0.1" d="M235.357 158.3H118.027V159.67H235.357V158.3Z" fill="black"/>
<path d="M143.347 154.32L134.647 156.07V156.57H137.917L145.727 154.93V154.32H143.347Z" fill="#263238"/>
<path d="M151.428 154.32L142.728 156.07V156.57H145.988L153.808 154.93V154.32H151.428Z" fill="#263238"/>
<path d="M159.508 154.32L150.808 156.07V156.57H154.068L161.878 154.93V154.32H159.508Z" fill="#263238"/>
<path d="M167.588 154.32L158.878 156.07V156.57H162.148L169.958 154.93V154.32H167.588Z" fill="#263238"/>
<path d="M175.657 154.32L166.957 156.07V156.57H170.217L178.037 154.93V154.32H175.657Z" fill="#263238"/>
<path d="M183.737 154.32L175.037 156.07V156.57H178.297L186.107 154.93V154.32H183.737Z" fill="#263238"/>
<path d="M191.817 154.32L183.107 156.07V156.57H186.377L194.187 154.93V154.32H191.817Z" fill="#263238"/>
<path d="M199.887 154.32L191.188 156.07V156.57H194.447L202.267 154.93V154.32H199.887Z" fill="#263238"/>
<path d="M207.968 154.32L199.268 156.07V156.57H202.528L210.338 154.93V154.32H207.968Z" fill="#263238"/>
<path d="M216.048 154.32L207.338 156.07V156.57H210.608L218.418 154.93V154.32H216.048Z" fill="#263238"/>
<path d="M224.117 154.32L215.417 156.07V156.57H218.677L226.497 154.93V154.32H224.117Z" fill="#263238"/>
<path d="M232.197 154.32L223.497 156.07V156.57H226.757L234.577 154.93V154.32H232.197Z" fill="#263238"/>
<path d="M324.528 30.8002C323.188 28.5902 320.988 30.5102 320.988 30.5102C321.298 26.2902 317.418 23.4002 317.418 23.4002C317.418 23.4002 321.928 23.4002 322.558 19.0902C323.188 14.7802 320.988 16.7902 318.918 16.7602C316.848 16.7302 314.688 22.7602 317.418 26.1702C320.148 29.5802 319.418 35.3602 313.118 40.9402C311.608 42.3472 310.477 44.1113 309.828 46.0702C310.308 40.9502 310.578 33.7302 309.068 28.9102C306.508 20.7302 311.388 18.5202 312.798 14.4302C314.208 10.3402 309.068 6.88022 309.068 6.88022C309.068 6.88022 313.898 4.67022 311.538 2.15022C309.178 -0.369783 304.298 -0.0197804 304.298 3.27022C304.298 6.56022 307.608 7.82022 307.608 7.82022C307.608 7.82022 311.388 11.7502 311.388 13.8202C311.388 15.8902 307.608 20.2702 307.608 20.2702C307.608 20.2702 309.338 16.5002 305.878 16.3402C302.418 16.1802 301.308 20.7502 302.728 22.7902C304.148 24.8302 306.508 23.1102 306.508 23.1102C306.653 25.498 307.014 27.8677 307.588 30.1902C307.938 31.3702 307.778 35.9802 307.478 40.7802C306.824 39.0476 305.772 37.4926 304.408 36.2402C298.118 30.6602 297.408 24.8602 300.108 21.4702C302.808 18.0802 300.678 12.0302 298.608 12.0602C296.538 12.0902 294.338 10.0602 294.968 14.3902C295.598 18.7202 300.108 18.7002 300.108 18.7002C300.108 18.7002 296.228 21.5902 296.538 25.8102C296.538 25.8102 294.338 23.8902 292.998 26.1002C290.608 30.0302 296.148 32.4702 297.078 30.5302C297.078 30.5302 308.818 38.8402 305.988 50.8102L306.648 51.8102C306.558 52.8102 306.508 53.3502 306.508 53.3502L307.428 52.9602L308.428 54.5002C308.392 56.2378 308.482 57.9757 308.698 59.7002L311.498 55.5602C308.668 43.5602 320.408 35.2902 320.408 35.2902C321.408 37.1702 326.918 34.7302 324.528 30.8002Z" fill="#69B3C0"/>
<path opacity="0.2" d="M324.528 30.8002C323.188 28.5902 320.988 30.5102 320.988 30.5102C321.298 26.2902 317.418 23.4002 317.418 23.4002C317.418 23.4002 321.928 23.4002 322.558 19.0902C323.188 14.7802 320.988 16.7902 318.918 16.7602C316.848 16.7302 314.688 22.7602 317.418 26.1702C320.148 29.5802 319.418 35.3602 313.118 40.9402C311.608 42.3472 310.477 44.1113 309.828 46.0702C310.308 40.9502 310.578 33.7302 309.068 28.9102C306.508 20.7302 311.388 18.5202 312.798 14.4302C314.208 10.3402 309.068 6.88022 309.068 6.88022C309.068 6.88022 313.898 4.67022 311.538 2.15022C309.178 -0.369783 304.298 -0.0197804 304.298 3.27022C304.298 6.56022 307.608 7.82022 307.608 7.82022C307.608 7.82022 311.388 11.7502 311.388 13.8202C311.388 15.8902 307.608 20.2702 307.608 20.2702C307.608 20.2702 309.338 16.5002 305.878 16.3402C302.418 16.1802 301.308 20.7502 302.728 22.7902C304.148 24.8302 306.508 23.1102 306.508 23.1102C306.653 25.498 307.014 27.8677 307.588 30.1902C307.938 31.3702 307.778 35.9802 307.478 40.7802C306.824 39.0476 305.772 37.4926 304.408 36.2402C298.118 30.6602 297.408 24.8602 300.108 21.4702C302.808 18.0802 300.678 12.0302 298.608 12.0602C296.538 12.0902 294.338 10.0602 294.968 14.3902C295.598 18.7202 300.108 18.7002 300.108 18.7002C300.108 18.7002 296.228 21.5902 296.538 25.8102C296.538 25.8102 294.338 23.8902 292.998 26.1002C290.608 30.0302 296.148 32.4702 297.078 30.5302C297.078 30.5302 308.818 38.8402 305.988 50.8102L306.648 51.8102C306.558 52.8102 306.508 53.3502 306.508 53.3502L307.428 52.9602L308.428 54.5002C308.392 56.2378 308.482 57.9757 308.698 59.7002L311.498 55.5602C308.668 43.5602 320.408 35.2902 320.408 35.2902C321.408 37.1702 326.918 34.7302 324.528 30.8002Z" fill="black"/>
<path d="M317.418 74.3902L313.628 52.7102L314.698 46.3902H302.768L303.838 52.7102L300.058 74.3902H317.418Z" fill="#69B3C0"/>
<path opacity="0.5" d="M317.418 74.3902L313.628 52.7102L314.698 46.3902H302.768L303.838 52.7102L300.058 74.3902H317.418Z" fill="white"/>
<path d="M211.027 55.2102L217.697 74.7902H198.247L211.027 55.2102Z" fill="#69B3C0"/>
<path opacity="0.3" d="M211.027 55.2102L217.697 74.7902H198.247L211.027 55.2102Z" fill="black"/>
<path d="M211.147 74.9902L188.907 75.0002L194.977 46.3002L217.227 46.2902L211.147 74.9902Z" fill="#69B3C0"/>
<path opacity="0.2" d="M211.147 74.9902L188.907 75.0002L194.977 46.3002L217.227 46.2902L211.147 74.9902Z" fill="black"/>
<path opacity="0.5" d="M209.628 73.6402L191.018 73.5402L196.498 47.6502L215.118 47.7502L209.628 73.6402Z" fill="white"/>
<path opacity="0.2" d="M203.408 49.8102C203.408 49.8102 200.188 51.0202 197.278 58.4202C195.278 63.5002 199.278 63.6502 199.278 63.6502C199.278 63.6502 198.748 67.5002 197.728 68.3702C196.118 69.7302 191.818 69.7102 191.818 69.7102L191.008 73.5402L209.618 73.6402L210.458 69.6402C210.458 69.6402 205.088 69.2302 204.718 68.3602C204.348 67.4902 206.008 62.8702 206.008 62.8702L207.798 60.6202C207.798 60.6202 211.798 56.2902 211.208 52.7302C211.077 51.8928 210.726 51.1053 210.191 50.4483C209.655 49.7913 208.955 49.2885 208.161 48.9913C207.367 48.6942 206.509 48.6134 205.674 48.7573C204.838 48.9012 204.056 49.2646 203.408 49.8102Z" fill="white"/>
<path d="M91.3672 208.73L91.7272 224.3L93.3672 294.73H98.7772L100.407 224.3L100.767 208.73H91.3672Z" fill="#263238"/>
<path opacity="0.4" d="M91.3672 208.73L91.7272 224.3L93.3672 294.73H98.7772L100.407 224.3L100.767 208.73H91.3672Z" fill="white"/>
<path opacity="0.2" d="M91.3672 208.73L91.7272 224.73H100.407L100.767 208.73H91.3672Z" fill="black"/>
<path d="M61.9971 294.48L66.9871 209.83H75.1571L68.1671 294.48H61.9971Z" fill="#263238"/>
<path opacity="0.5" d="M68.1771 294.48H61.9971L66.5371 217.43L66.9871 209.73H75.1571L74.5271 217.43L68.1771 294.48Z" fill="white"/>
<path opacity="0.2" d="M75.1571 209.73L74.5271 217.73H66.5371L66.9871 209.73H75.1571Z" fill="black"/>
<path d="M123.987 294.48L116.987 209.83H125.157L130.157 294.48H123.987Z" fill="#263238"/>
<path opacity="0.5" d="M123.967 294.48L117.617 217.43L116.987 209.73H125.157L125.607 217.43L130.147 294.48H123.967Z" fill="white"/>
<path opacity="0.2" d="M116.987 209.73L117.617 217.73H125.607L125.157 209.73H116.987Z" fill="black"/>
<path d="M129.527 212.76H62.6073V206.07C62.6073 204.744 63.1341 203.472 64.0718 202.535C65.0095 201.597 66.2813 201.07 67.6073 201.07H124.527C125.853 201.07 127.125 201.597 128.063 202.535C129.001 203.472 129.527 204.744 129.527 206.07V212.76Z" fill="#69B3C0"/>
<path d="M61.4173 212.75H130.727C131.837 212.75 132.737 211.85 132.737 210.74V208.92C132.737 207.81 131.837 206.91 130.727 206.91H61.4173C60.3072 206.91 59.4073 207.81 59.4073 208.92V210.74C59.4073 211.85 60.3072 212.75 61.4173 212.75Z" fill="#263238"/>
<path opacity="0.6" d="M61.4173 212.75H130.727C131.837 212.75 132.737 211.85 132.737 210.74V208.92C132.737 207.81 131.837 206.91 130.727 206.91H61.4173C60.3072 206.91 59.4073 207.81 59.4073 208.92V210.74C59.4073 211.85 60.3072 212.75 61.4173 212.75Z" fill="white"/>
<path d="M124.407 71.9402C124.407 71.9402 119.697 68.2802 114.407 68.1802C109.117 68.0802 96.8771 72.0502 97.4671 85.5902C98.0571 99.1302 97.0771 113.87 97.0771 113.87L117.547 120.7C117.547 120.7 130.807 98.2502 131.697 90.7002C132.587 83.1502 124.407 71.9402 124.407 71.9402Z" fill="#FAF0BE"/>
<path d="M169.207 142.05L175.627 140.2C175.627 140.2 177.997 134.75 178.787 134.51C179.577 134.27 185.927 132.99 185.927 132.99L183.167 143.79C183.167 143.79 180.107 145.22 179.167 144.79L170.467 147.42L169.207 142.05Z" fill="#FAB999"/>
<path d="M124.117 114.29C130.787 119.51 138.757 140.96 146.817 143.8C152.347 145.75 172.497 140.61 172.497 140.61L175.037 147.46C175.037 147.46 155.187 156.46 142.227 154.32C130.727 152.45 116.587 134.52 116.587 134.52L124.117 114.29Z" fill="#69B3C0"/>
<path opacity="0.5" d="M124.117 114.29C130.787 119.51 138.757 140.96 146.817 143.8C152.347 145.75 172.497 140.61 172.497 140.61L175.037 147.46C175.037 147.46 155.187 156.46 142.227 154.32C130.727 152.45 116.587 134.52 116.587 134.52L124.117 114.29Z" fill="white"/>
<path d="M139.398 157.3L131.688 141.27L133.337 140.23L140.618 155.45L139.398 157.3Z" fill="#69B3C0"/>
<path d="M115.478 152.66L125.668 153.01C125.668 153.01 135.668 147.6 137.098 147.47C138.528 147.34 142.638 152.08 143.038 153.27C143.438 154.46 132.558 160.16 130.388 159.98C129.78 159.946 129.188 159.778 128.654 159.487C128.119 159.197 127.656 158.791 127.298 158.3L115.998 158.98L115.478 152.66Z" fill="#FAB999"/>
<path d="M181.438 259.42L174.858 261L171.528 251.93L168.508 243.67L175.998 240.48L178.878 250.49L181.438 259.42Z" fill="#FAB999"/>
<path d="M173.257 260.56C173.097 259.83 182.147 258.26 182.147 258.26C182.147 258.26 188.967 262.51 194.587 262.48C200.207 262.45 198.007 266.36 192.057 267.79L177.347 271.34C173.117 272.36 174.897 268.12 173.257 260.56Z" fill="#69B3C0"/>
<path d="M186.307 259.51C185.336 259.485 184.368 259.371 183.417 259.17C183.391 259.176 183.364 259.176 183.337 259.17C183.307 259.159 183.283 259.138 183.267 259.11C183.262 259.07 183.262 259.03 183.267 258.99C183.267 258.89 183.527 256.64 184.617 255.85C184.778 255.724 184.965 255.637 185.164 255.593C185.363 255.55 185.569 255.552 185.767 255.6C186.227 255.7 186.477 255.9 186.537 256.21C186.627 256.68 186.097 257.31 185.467 257.87C186.097 257.601 186.789 257.508 187.467 257.6C187.599 257.635 187.721 257.697 187.828 257.781C187.934 257.866 188.023 257.971 188.087 258.09C188.192 258.236 188.248 258.411 188.248 258.59C188.248 258.77 188.192 258.944 188.087 259.09C187.834 259.276 187.546 259.409 187.24 259.481C186.934 259.553 186.617 259.563 186.307 259.51ZM184.197 258.82C185.647 259.06 187.397 259.16 187.727 258.71C187.727 258.71 187.847 258.56 187.727 258.23C187.693 258.168 187.646 258.113 187.589 258.07C187.532 258.027 187.467 257.997 187.397 257.98C186.617 257.76 185.137 258.36 184.197 258.82ZM185.407 255.96C185.208 255.959 185.014 256.026 184.857 256.15C184.264 256.775 183.889 257.575 183.787 258.43C184.987 257.61 186.097 256.61 186.027 256.2C186.027 256.08 185.767 256.01 185.637 255.98L185.407 255.96Z" fill="#263238"/>
<path opacity="0.2" d="M178.878 250.49L171.528 251.93L168.508 243.67L175.998 240.48L178.878 250.49Z" fill="#FAB999"/>
<path d="M120.087 168.45L138.907 152.96L169.207 155.24L148.947 168.08L120.087 168.45Z" fill="#263238"/>
<path opacity="0.8" d="M120.087 168.45L138.907 152.96L169.207 155.24L148.947 168.08L120.087 168.45Z" fill="white"/>
<path d="M178.217 245.7L169.097 249.05C169.097 249.05 144.767 188.22 139.767 188.05C134.767 187.88 83.8573 211.24 71.0973 198.26C58.3373 185.28 76.7873 154.05 76.7873 154.05C76.7873 154.05 107.477 149.67 109.787 156.6C110.356 158.643 110.79 160.721 111.087 162.82C111.437 164.94 111.677 166.72 111.677 166.72C112.677 166.48 143.437 158.53 155.577 166.72C167.927 175.05 178.217 245.7 178.217 245.7Z" fill="#263238"/>
<path d="M125.757 285.37L119.207 283.69L120.467 274.29L121.637 265.67L129.737 266.4L127.637 276.44L125.757 285.37Z" fill="#FAB999"/>
<path d="M117.408 283.38C117.408 282.63 126.588 283.32 126.588 283.32C126.588 283.32 132.158 289.12 137.588 290.48C143.018 291.84 139.948 295.08 133.828 295.01L118.688 294.83C114.408 294.77 117.168 291.1 117.408 283.38Z" fill="#69B3C0"/>
<path d="M131.408 285.73C130.076 285.555 128.786 285.145 127.598 284.52L127.538 284.47C127.516 284.448 127.498 284.42 127.488 284.39C127.483 284.371 127.483 284.35 127.488 284.33C127.478 284.294 127.478 284.256 127.488 284.22C127.488 284.12 128.318 282 129.568 281.5C129.756 281.421 129.959 281.385 130.163 281.394C130.367 281.402 130.567 281.456 130.748 281.55C131.168 281.75 131.368 282.01 131.348 282.32C131.348 282.8 130.648 283.32 129.898 283.67C130.594 283.555 131.309 283.642 131.958 283.92C132.075 283.986 132.179 284.075 132.261 284.181C132.344 284.288 132.404 284.41 132.438 284.54C132.506 284.711 132.52 284.899 132.477 285.078C132.434 285.258 132.336 285.419 132.198 285.54C131.964 285.693 131.685 285.76 131.408 285.73ZM128.408 284.38C129.748 284.96 131.408 285.49 131.858 285.14C131.858 285.14 132.018 285.02 131.928 284.66C131.91 284.59 131.877 284.525 131.833 284.468C131.788 284.411 131.732 284.364 131.668 284.33C131.068 283.95 129.498 284.16 128.468 284.38H128.408ZM130.068 281.87C129.944 281.873 129.821 281.9 129.708 281.95C128.97 282.424 128.408 283.126 128.108 283.95C129.478 283.45 130.798 282.75 130.818 282.34C130.818 282.21 130.628 282.09 130.498 282.03C130.387 281.952 130.261 281.898 130.128 281.87H130.068Z" fill="#263238"/>
<path opacity="0.2" d="M127.587 276.64L120.417 274.47L121.617 265.76L129.727 266.44L127.587 276.64Z" fill="#FAB999"/>
<path d="M165.327 245.72L178.617 241.2L179.177 246.65L169.107 250.21L165.327 245.72Z" fill="#69B3C0"/>
<path d="M93.1377 201.38C93.1377 201.38 95.2177 201.43 127.408 199.93C127.408 199.93 122.598 240.18 119.968 270.31L129.598 271.95C129.598 271.95 152.598 207.43 152.348 197.18C152.098 186.93 140.348 183.93 140.348 183.93C140.348 183.93 117.408 197.18 93.1377 201.38Z" fill="#263238"/>
<path opacity="0.3" d="M93.1377 201.38C93.1377 201.38 95.2177 201.43 127.408 199.93C127.408 199.93 122.598 240.18 119.968 270.31L129.598 271.95C129.598 271.95 152.598 207.43 152.348 197.18C152.098 186.93 140.348 183.93 140.348 183.93C140.348 183.93 117.408 197.18 93.1377 201.38Z" fill="black"/>
<path d="M118.557 267.39L131.787 268.89L129.237 274.08L118.527 272.7L118.557 267.39Z" fill="#69B3C0"/>
<path opacity="0.3" d="M111.678 166.69L93.6777 170.43C93.6777 170.43 103.598 164.95 111.038 162.79C111.408 164.91 111.678 166.69 111.678 166.69Z" fill="black"/>
<path d="M77.5271 149.25L76.7871 154.03L109.787 156.57L110.657 150.93L77.5271 149.25Z" fill="#263238"/>
<path opacity="0.2" d="M77.5271 149.25L76.7871 154.03L109.787 156.57L110.657 150.93L77.5271 149.25Z" fill="black"/>
<path d="M88.7896 148.933L87.1582 148.766L86.3042 157.072L87.9356 157.24L88.7896 148.933Z" fill="#263238"/>
<path d="M104.389 150.822L97.1494 150.387L96.82 155.877L104.06 156.312L104.389 150.822Z" fill="white"/>
<path d="M109.071 149.831L107.439 149.663L106.585 157.969L108.217 158.137L109.071 149.831Z" fill="#263238"/>
<path d="M78.5272 149.25C78.5272 149.25 75.1572 121.05 85.8672 103.05C85.8672 103.05 108.807 93.9402 124.117 114.29C124.117 114.29 126.407 134.89 122.607 138.9C118.807 142.91 111.137 154.32 111.137 154.32L78.5272 149.25Z" fill="#69B3C0"/>
<path opacity="0.6" d="M78.5272 149.25C78.5272 149.25 75.1572 121.05 85.8672 103.05C85.8672 103.05 108.807 93.9402 124.117 114.29C124.117 114.29 126.407 134.89 122.607 138.9C118.807 142.91 111.137 154.32 111.137 154.32L78.5272 149.25Z" fill="white"/>
<path d="M85.8674 103.05C96.6674 100.35 94.9574 140.68 96.7674 145.62C98.5774 150.56 123.707 151.05 123.707 151.05L123.177 159.69C123.177 159.69 94.3774 162.01 86.4674 155.47C78.5574 148.93 75.7574 105.57 85.8674 103.05Z" fill="#69B3C0"/>
<path opacity="0.5" d="M85.8674 103.05C96.6674 100.35 94.9574 140.68 96.7674 145.62C98.5774 150.56 123.707 151.05 123.707 151.05L123.177 159.69C123.177 159.69 94.3774 162.01 86.4674 155.47C78.5574 148.93 75.7574 105.57 85.8674 103.05Z" fill="white"/>
<path d="M116.587 69.0502C116.587 69.0502 119.827 65.6902 126.107 69.0502C132.387 72.4102 142.457 80.8102 138.507 93.7202C134.557 106.63 129.617 120.08 131.687 126.41C133.757 132.74 127.027 132.98 127.027 132.98C127.027 132.98 130.347 131.98 129.287 127.7C128.227 123.42 129.287 108.02 129.287 108.02C129.287 108.02 125.457 119.02 121.697 117.02C117.937 115.02 114.967 107.13 107.747 104.59C102.407 102.74 116.587 69.0502 116.587 69.0502Z" fill="#FAF0BE"/>
<path d="M111.677 134.72C111.628 134.72 111.581 134.706 111.54 134.68C111.499 134.653 111.467 134.615 111.447 134.57C110.867 133.31 97.1172 103.57 96.8172 101.21C96.8107 101.169 96.8157 101.126 96.8316 101.088C96.8474 101.049 96.8736 101.015 96.9072 100.99C96.9369 100.961 96.9742 100.941 97.015 100.932C97.0557 100.923 97.0981 100.926 97.1372 100.94C97.7072 101.12 111.047 105.36 113.217 110.04C115.387 114.72 112.067 133.71 111.917 134.51C111.911 134.564 111.887 134.614 111.849 134.652C111.81 134.69 111.761 134.714 111.707 134.72H111.677ZM97.4072 101.55C98.4072 104.91 106.787 123.3 111.557 133.63C112.167 129.91 114.557 114.24 112.747 110.25C110.937 106.26 99.7472 102.33 97.4072 101.55Z" fill="#263238"/>
<path d="M97.0674 101.18C98.4385 100.172 99.9385 99.3509 101.527 98.7403C104.287 97.6503 111.327 103.49 112.297 105.82C113.267 108.15 106.297 110.61 106.297 110.61L97.0674 101.18Z" fill="#69B3C0"/>
<path opacity="0.3" d="M97.0674 101.18C98.4385 100.172 99.9385 99.3509 101.527 98.7403C104.287 97.6503 111.327 103.49 112.297 105.82C113.267 108.15 106.297 110.61 106.297 110.61L97.0674 101.18Z" fill="white"/>
<path d="M110.817 104.59C110.677 106.59 111.747 107.13 111.747 107.13C111.783 107.739 111.679 108.348 111.443 108.911C111.207 109.474 110.846 109.975 110.386 110.376C109.927 110.778 109.382 111.069 108.793 111.227C108.204 111.386 107.586 111.407 106.987 111.29C100.877 110.05 99.6572 102.43 99.6572 102.43C104.327 101.09 105.817 96.2402 106.297 93.3102C106.426 92.5466 106.5 91.7746 106.517 91.0002L114.397 97.1102C113.569 98.2192 112.82 99.3855 112.157 100.6C111.443 101.825 110.987 103.183 110.817 104.59Z" fill="#FAB999"/>
<path opacity="0.2" d="M114.408 97.1102C113.58 98.2192 112.831 99.3855 112.168 100.6C111.452 101.828 110.996 103.189 110.828 104.6C106.108 104.03 106.338 93.3902 106.338 93.3902V93.3203C106.467 92.5566 106.54 91.7846 106.558 91.0103L114.408 97.1102Z" fill="black"/>
<path d="M101.527 98.7402C101.527 98.7402 105.527 104.51 108.657 105.82C111.787 107.13 112.297 105.82 112.297 105.82L113.877 109.62C113.877 109.62 113.877 115.53 107.027 115.56C101.417 115.56 97.0273 101.18 97.0273 101.18L101.527 98.7402Z" fill="#69B3C0"/>
<path opacity="0.5" d="M101.527 98.7402C101.527 98.7402 105.527 104.51 108.657 105.82C111.787 107.13 112.297 105.82 112.297 105.82L113.877 109.62C113.877 109.62 113.877 115.53 107.027 115.56C101.417 115.56 97.0273 101.18 97.0273 101.18L101.527 98.7402Z" fill="white"/>
<path d="M123.707 76.1702C131.467 79.6902 132.077 84.9802 129.017 93.2402C125.197 103.56 119.757 109.65 111.017 103.11C99.157 94.2302 110.817 70.3202 123.707 76.1702Z" fill="#FAB999"/>
<path d="M124.197 90.5302C124.294 91.9703 124.563 93.3936 124.997 94.7702C124.623 94.987 124.197 95.097 123.765 95.0881C123.333 95.0793 122.912 94.952 122.547 94.7202L124.197 90.5302Z" fill="#C08F77"/>
<path d="M119.737 87.7302C119.457 88.3802 118.887 88.7302 118.457 88.5702C118.027 88.4102 117.907 87.7202 118.177 87.0702C118.447 86.4202 119.027 86.0702 119.457 86.2402C119.887 86.4102 120.007 87.0502 119.737 87.7302Z" fill="#263238"/>
<path d="M119.258 86.1902L120.898 86.2402C120.898 86.2402 119.698 87.1202 119.258 86.1902Z" fill="#263238"/>
<path d="M127.807 91.0502C127.527 91.7002 126.957 92.0502 126.527 91.8902C126.097 91.7302 125.977 91.0302 126.247 90.3902C126.517 89.7502 127.097 89.3902 127.527 89.5502C127.957 89.7102 128.077 90.3702 127.807 91.0502Z" fill="#263238"/>
<path d="M127.327 89.4702L128.967 89.5202C128.967 89.5202 127.767 90.4002 127.327 89.4702Z" fill="#263238"/>
<path d="M122.087 82.7002C122.021 82.6977 121.956 82.6807 121.897 82.6502C121.37 82.3299 120.776 82.1329 120.161 82.074C119.547 82.0151 118.927 82.0959 118.347 82.3102C118.261 82.3526 118.162 82.3591 118.071 82.3282C117.98 82.2972 117.905 82.2314 117.862 82.1452C117.82 82.059 117.814 81.9595 117.844 81.8685C117.875 81.7776 117.941 81.7026 118.027 81.6602C118.716 81.3878 119.458 81.2794 120.196 81.3436C120.934 81.4078 121.646 81.6429 122.277 82.0302C122.319 82.0548 122.354 82.0874 122.383 82.126C122.411 82.1646 122.431 82.2084 122.442 82.255C122.454 82.3016 122.455 82.3499 122.448 82.3971C122.44 82.4444 122.423 82.4896 122.397 82.5302C122.364 82.5822 122.318 82.6249 122.264 82.6546C122.21 82.6843 122.149 82.7 122.087 82.7002Z" fill="#263238"/>
<path d="M130.687 86.9802C130.625 86.978 130.564 86.9605 130.51 86.9291C130.456 86.8977 130.41 86.8534 130.377 86.8002C130.123 86.3207 129.765 85.9041 129.329 85.5806C128.893 85.2571 128.39 85.0349 127.857 84.9302C127.81 84.9269 127.764 84.9144 127.721 84.8932C127.679 84.8721 127.641 84.8428 127.61 84.8071C127.579 84.7713 127.555 84.7298 127.54 84.6849C127.525 84.64 127.519 84.5925 127.522 84.5452C127.526 84.4979 127.538 84.4518 127.559 84.4093C127.58 84.3669 127.61 84.3291 127.645 84.298C127.681 84.2669 127.723 84.2431 127.768 84.2281C127.813 84.213 127.86 84.2069 127.907 84.2102C128.556 84.3209 129.171 84.5773 129.706 84.9601C130.242 85.3429 130.683 85.8421 130.997 86.4202C131.046 86.5028 131.061 86.6012 131.038 86.6945C131.016 86.7878 130.958 86.8687 130.877 86.9202C130.821 86.9582 130.755 86.979 130.687 86.9802Z" fill="#263238"/>
<path d="M109.288 85.4002C109.288 85.4002 115.808 80.6702 117.498 75.5002C117.498 75.5002 135.728 76.1902 129.398 92.1502C129.398 92.1502 137.198 78.9702 123.988 72.6002C110.778 66.2302 101.988 85.7902 106.238 94.7302C106.238 94.7302 105.228 88.3702 109.288 85.4002Z" fill="#FAF0BE"/>
<path d="M109.808 87.6102C110.142 86.6793 110.092 85.6539 109.67 84.7594C109.249 83.8649 108.489 83.1746 107.558 82.8402C105.028 82.0102 101.648 86.4302 107.088 90.3302C107.868 90.8902 108.738 90.2702 109.808 87.6102Z" fill="#FAB999"/>
<path d="M120.257 98.1302H120.197C119.114 98.0029 118.112 97.4887 117.377 96.6822C116.643 95.8757 116.224 94.831 116.197 93.7402C116.197 93.6448 116.235 93.5532 116.303 93.4857C116.37 93.4182 116.462 93.3802 116.557 93.3802C116.653 93.3802 116.744 93.4182 116.812 93.4857C116.879 93.5532 116.917 93.6448 116.917 93.7402C116.932 94.6585 117.283 95.5394 117.905 96.2159C118.526 96.8923 119.374 97.3173 120.287 97.4102C120.382 97.4274 120.467 97.4809 120.523 97.5593C120.579 97.6377 120.602 97.735 120.587 97.8302C120.574 97.9101 120.534 97.9831 120.474 98.0375C120.414 98.0919 120.338 98.1246 120.257 98.1302Z" fill="#263238"/>
<path d="M123.908 119.86H123.698C122.038 119.8 120.698 117.44 119.488 115.16C118.887 113.817 118.043 112.596 116.998 111.56C116.971 111.541 116.948 111.517 116.93 111.489C116.913 111.461 116.901 111.43 116.895 111.398C116.89 111.365 116.891 111.332 116.898 111.3C116.905 111.268 116.919 111.237 116.938 111.21C116.957 111.183 116.981 111.16 117.009 111.143C117.037 111.125 117.068 111.113 117.1 111.108C117.133 111.102 117.166 111.103 117.198 111.11C117.23 111.118 117.261 111.131 117.288 111.15C118.208 111.78 119.038 113.3 119.928 114.92C121.058 116.92 122.338 119.31 123.718 119.36C124.343 119.399 124.97 119.298 125.552 119.067C126.135 118.835 126.659 118.478 127.088 118.02C130.618 114.39 130.088 104.72 130.088 104.63C130.085 104.564 130.107 104.5 130.15 104.45C130.192 104.4 130.252 104.368 130.318 104.36C130.351 104.356 130.384 104.359 130.416 104.368C130.448 104.378 130.478 104.394 130.503 104.416C130.529 104.437 130.549 104.464 130.564 104.494C130.578 104.524 130.587 104.557 130.588 104.59C130.588 105 131.168 114.59 127.488 118.36C127.029 118.847 126.473 119.232 125.857 119.49C125.24 119.748 124.576 119.874 123.908 119.86Z" fill="#FAF0BE"/>
<path d="M127.947 136.28C127.881 136.28 127.817 136.254 127.77 136.207C127.724 136.16 127.697 136.097 127.697 136.03C127.697 135.964 127.724 135.9 127.77 135.853C127.817 135.807 127.881 135.78 127.947 135.78C128.869 135.668 129.725 135.247 130.377 134.586C131.029 133.925 131.438 133.063 131.537 132.14C131.637 131.22 131.637 129.99 131.647 128.58C131.647 124.74 131.707 119.48 133.557 114.21C136.047 107.09 139.767 89.4902 138.107 85.0802C138.088 85.0487 138.076 85.0133 138.072 84.9766C138.068 84.9398 138.072 84.9027 138.084 84.8677C138.096 84.8328 138.116 84.801 138.142 84.7746C138.168 84.7482 138.199 84.7278 138.234 84.715C138.268 84.7022 138.305 84.6972 138.342 84.7005C138.379 84.7037 138.415 84.7151 138.447 84.7337C138.479 84.7524 138.506 84.7779 138.527 84.8085C138.548 84.839 138.561 84.8737 138.567 84.9102C140.277 89.4102 136.567 107.2 134.027 114.38C132.207 119.56 132.177 124.78 132.147 128.58C132.147 130.01 132.147 131.24 132.027 132.2C131.905 133.227 131.446 134.183 130.722 134.922C129.999 135.66 129.051 136.137 128.027 136.28H127.947Z" fill="#FAF0BE"/>
<path d="M111.677 134.47C112.426 135.904 112.872 137.477 112.987 139.09C112.887 140.97 108.407 140.63 111.677 134.47Z" fill="#69B3C0"/>
<path opacity="0.6" d="M173.257 260.56C173.097 259.83 182.147 258.26 182.147 258.26C182.147 258.26 188.967 262.51 194.587 262.48C200.207 262.45 198.007 266.36 192.057 267.79L177.347 271.34C173.117 272.36 174.897 268.12 173.257 260.56Z" fill="white"/>
<path opacity="0.6" d="M117.408 283.38C117.408 282.63 126.588 283.32 126.588 283.32C126.588 283.32 132.158 289.12 137.588 290.48C143.018 291.84 139.948 295.08 133.828 295.01L118.688 294.83C114.408 294.77 117.168 291.1 117.408 283.38Z" fill="white"/>
<path d="M246.837 107.25L239.317 146.05C239.317 146.05 217.227 146.15 209.317 148.17C209.317 148.17 191.997 145.17 182.837 145.17L192.537 107.17C192.927 107.04 210.997 107.43 217.727 110.07C217.697 110.15 235.887 106.99 246.837 107.25Z" fill="#F5F5F5"/>
<path opacity="0.1" d="M217.698 110.15L209.288 148.21C209.288 148.21 191.968 145.21 182.808 145.21L192.508 107.21C192.898 107.12 210.968 107.51 217.698 110.15Z" fill="black"/>
<g opacity="0.2">
<path d="M213.867 114.54H213.747C208.527 111.76 194.547 111.63 194.407 111.63C194.341 111.63 194.277 111.604 194.23 111.557C194.184 111.51 194.157 111.447 194.157 111.38C194.157 111.314 194.184 111.25 194.23 111.203C194.277 111.157 194.341 111.13 194.407 111.13C194.987 111.13 208.657 111.26 213.987 114.13C214.016 114.146 214.042 114.167 214.062 114.193C214.083 114.218 214.099 114.248 214.108 114.279C214.117 114.311 214.12 114.344 214.117 114.377C214.113 114.41 214.103 114.441 214.087 114.47C214.06 114.5 214.025 114.523 213.987 114.535C213.948 114.547 213.907 114.549 213.867 114.54Z" fill="black"/>
</g>
<g opacity="0.2">
<path d="M220.957 114.54C220.899 114.54 220.843 114.519 220.798 114.483C220.752 114.447 220.72 114.397 220.707 114.34C220.695 114.275 220.71 114.208 220.747 114.154C220.785 114.1 220.842 114.062 220.907 114.05C221.557 113.93 236.697 111.17 242.197 111.86C242.23 111.864 242.262 111.875 242.29 111.891C242.319 111.907 242.345 111.929 242.365 111.955C242.385 111.981 242.401 112.01 242.41 112.042C242.418 112.074 242.421 112.107 242.417 112.14C242.413 112.173 242.403 112.205 242.387 112.234C242.37 112.262 242.349 112.288 242.323 112.308C242.297 112.329 242.267 112.344 242.235 112.353C242.203 112.362 242.17 112.364 242.137 112.36C236.707 111.68 221.137 114.51 220.997 114.54H220.957Z" fill="black"/>
</g>
<g opacity="0.2">
<path d="M212.808 119.13C212.772 119.141 212.734 119.141 212.698 119.13C207.468 116.35 193.488 116.22 193.348 116.22C193.28 116.218 193.217 116.189 193.17 116.141C193.124 116.092 193.098 116.027 193.098 115.96C193.1 115.896 193.128 115.835 193.174 115.79C193.221 115.745 193.283 115.72 193.348 115.72C193.928 115.72 207.598 115.85 212.928 118.72C212.985 118.75 213.029 118.801 213.049 118.863C213.07 118.925 213.066 118.992 213.038 119.05C213.008 119.081 212.972 119.104 212.932 119.118C212.892 119.132 212.85 119.136 212.808 119.13Z" fill="black"/>
</g>
<g opacity="0.2">
<path d="M219.897 119.13C219.831 119.13 219.768 119.104 219.721 119.057C219.674 119.01 219.647 118.947 219.647 118.88C219.647 118.814 219.674 118.75 219.721 118.703C219.768 118.657 219.831 118.63 219.897 118.63C220.537 118.51 235.677 115.76 241.177 116.45C241.21 116.454 241.242 116.464 241.271 116.48C241.3 116.496 241.326 116.518 241.346 116.544C241.367 116.57 241.382 116.6 241.39 116.632C241.399 116.664 241.402 116.697 241.397 116.73C241.388 116.795 241.353 116.853 241.3 116.892C241.248 116.932 241.182 116.949 241.117 116.94C235.687 116.26 220.117 119.09 219.987 119.12L219.897 119.13Z" fill="black"/>
</g>
<g opacity="0.2">
<path d="M211.757 123.71C211.718 123.719 211.677 123.719 211.637 123.71C206.407 120.93 192.427 120.8 192.287 120.8C192.255 120.8 192.223 120.794 192.193 120.781C192.163 120.768 192.136 120.75 192.114 120.726C192.091 120.703 192.074 120.675 192.062 120.645C192.051 120.615 192.046 120.583 192.047 120.55C192.047 120.484 192.073 120.42 192.12 120.373C192.167 120.327 192.231 120.3 192.297 120.3C192.877 120.3 206.537 120.43 211.867 123.3C211.897 123.315 211.923 123.336 211.945 123.361C211.967 123.386 211.983 123.415 211.994 123.447C212.004 123.479 212.008 123.512 212.005 123.545C212.002 123.578 211.993 123.611 211.977 123.64C211.948 123.668 211.913 123.689 211.875 123.701C211.837 123.713 211.797 123.716 211.757 123.71Z" fill="black"/>
</g>
<g opacity="0.2">
<path d="M218.838 123.71C218.781 123.709 218.726 123.689 218.683 123.652C218.639 123.616 218.609 123.566 218.598 123.51C218.59 123.477 218.59 123.443 218.596 123.41C218.602 123.377 218.615 123.346 218.634 123.318C218.652 123.29 218.677 123.266 218.705 123.247C218.733 123.229 218.765 123.216 218.798 123.21C219.438 123.1 234.578 120.34 240.088 121.03C240.152 121.04 240.211 121.075 240.25 121.127C240.289 121.18 240.306 121.245 240.298 121.31C240.288 121.376 240.253 121.435 240.201 121.476C240.149 121.517 240.084 121.536 240.018 121.53C234.598 120.84 219.018 123.68 218.888 123.71H218.838Z" fill="black"/>
</g>
<g opacity="0.2">
<path d="M210.697 128.29H210.577C205.357 125.51 191.377 125.38 191.237 125.38C191.171 125.38 191.107 125.354 191.061 125.307C191.014 125.26 190.987 125.197 190.987 125.13C190.987 125.064 191.014 125 191.061 124.953C191.107 124.907 191.171 124.88 191.237 124.88C191.817 124.88 205.477 125.01 210.817 127.88C210.846 127.896 210.872 127.917 210.893 127.943C210.913 127.968 210.929 127.998 210.938 128.029C210.947 128.061 210.95 128.094 210.947 128.127C210.943 128.16 210.933 128.191 210.917 128.22C210.89 128.25 210.855 128.273 210.817 128.285C210.778 128.297 210.737 128.299 210.697 128.29Z" fill="black"/>
</g>
<g opacity="0.2">
<path d="M217.787 128.29C217.729 128.291 217.672 128.272 217.626 128.235C217.58 128.199 217.549 128.148 217.537 128.09C217.525 128.025 217.54 127.958 217.577 127.904C217.615 127.85 217.672 127.812 217.737 127.8C218.377 127.68 233.527 124.92 239.027 125.61C239.06 125.614 239.092 125.625 239.121 125.641C239.149 125.657 239.175 125.679 239.195 125.705C239.216 125.731 239.231 125.76 239.24 125.792C239.249 125.824 239.251 125.857 239.247 125.89C239.243 125.923 239.233 125.955 239.217 125.984C239.2 126.012 239.179 126.038 239.153 126.058C239.127 126.079 239.097 126.094 239.065 126.103C239.033 126.112 239 126.114 238.967 126.11C233.537 125.43 217.967 128.26 217.827 128.29H217.787Z" fill="black"/>
</g>
<g opacity="0.2">
<path d="M209.638 132.88C209.602 132.891 209.564 132.891 209.528 132.88C204.298 130.09 190.318 129.97 190.178 129.97C190.111 129.968 190.047 129.939 190 129.891C189.954 129.842 189.928 129.777 189.928 129.71C189.93 129.646 189.958 129.585 190.004 129.54C190.051 129.495 190.113 129.47 190.178 129.47C190.758 129.47 204.428 129.6 209.758 132.47C209.786 132.485 209.812 132.505 209.832 132.53C209.853 132.555 209.868 132.583 209.878 132.614C209.887 132.645 209.89 132.677 209.887 132.709C209.883 132.741 209.873 132.772 209.858 132.8C209.831 132.831 209.797 132.855 209.758 132.869C209.72 132.883 209.678 132.887 209.638 132.88Z" fill="black"/>
</g>
<g opacity="0.2">
<path d="M216.728 132.88C216.661 132.88 216.598 132.854 216.551 132.807C216.504 132.76 216.478 132.697 216.478 132.63C216.478 132.564 216.504 132.5 216.551 132.453C216.598 132.407 216.661 132.38 216.728 132.38C217.368 132.26 232.508 129.51 238.008 130.2C238.04 130.204 238.072 130.214 238.101 130.23C238.13 130.246 238.156 130.268 238.176 130.294C238.197 130.32 238.212 130.35 238.22 130.382C238.229 130.414 238.232 130.447 238.228 130.48C238.215 130.544 238.18 130.601 238.128 130.639C238.076 130.678 238.012 130.696 237.948 130.69C232.518 130.01 216.948 132.84 216.818 132.87L216.728 132.88Z" fill="black"/>
</g>
<g opacity="0.2">
<path d="M208.587 137.46H208.467C203.237 134.68 189.257 134.55 189.117 134.55C189.051 134.55 188.987 134.524 188.94 134.477C188.894 134.43 188.867 134.367 188.867 134.3C188.87 134.235 188.897 134.173 188.943 134.126C188.99 134.08 189.052 134.053 189.117 134.05C189.697 134.05 203.357 134.18 208.687 137.05C208.717 137.065 208.744 137.086 208.765 137.111C208.787 137.136 208.803 137.165 208.814 137.197C208.824 137.229 208.828 137.262 208.825 137.295C208.822 137.328 208.813 137.361 208.797 137.39C208.769 137.417 208.736 137.437 208.7 137.449C208.664 137.461 208.625 137.465 208.587 137.46Z" fill="black"/>
</g>
<g opacity="0.2">
<path d="M215.668 137.46C215.611 137.459 215.556 137.439 215.513 137.402C215.469 137.366 215.439 137.316 215.428 137.26C215.42 137.227 215.42 137.193 215.426 137.16C215.432 137.127 215.445 137.096 215.464 137.068C215.483 137.04 215.507 137.016 215.535 136.997C215.563 136.979 215.595 136.966 215.628 136.96C216.268 136.85 231.408 134.09 236.908 134.78C236.941 134.784 236.973 134.794 237.001 134.81C237.03 134.826 237.056 134.848 237.076 134.874C237.097 134.9 237.112 134.93 237.121 134.962C237.13 134.994 237.132 135.027 237.128 135.06C237.118 135.126 237.083 135.185 237.031 135.226C236.979 135.267 236.914 135.286 236.848 135.28C231.418 134.59 215.848 137.43 215.718 137.46H215.668Z" fill="black"/>
</g>
<g opacity="0.2">
<path d="M207.527 142.05C207.488 142.059 207.447 142.059 207.407 142.05C202.187 139.27 188.207 139.14 188.067 139.14C188.001 139.14 187.937 139.114 187.891 139.067C187.844 139.02 187.817 138.957 187.817 138.89C187.817 138.824 187.844 138.76 187.891 138.713C187.937 138.667 188.001 138.64 188.067 138.64C188.647 138.64 202.307 138.77 207.647 141.64C207.704 141.674 207.746 141.727 207.764 141.791C207.783 141.854 207.777 141.921 207.747 141.98C207.72 142.009 207.685 142.031 207.646 142.043C207.608 142.056 207.567 142.058 207.527 142.05Z" fill="black"/>
</g>
<g opacity="0.2">
<path d="M214.617 142.05C214.559 142.051 214.502 142.032 214.456 141.995C214.41 141.959 214.379 141.908 214.367 141.85C214.356 141.785 214.37 141.718 214.407 141.664C214.445 141.61 214.502 141.572 214.567 141.56C215.207 141.44 230.357 138.68 235.857 139.37C235.922 139.38 235.98 139.415 236.019 139.467C236.059 139.52 236.076 139.585 236.067 139.65C236.064 139.683 236.053 139.715 236.037 139.744C236.021 139.773 235.999 139.798 235.973 139.819C235.947 139.839 235.917 139.854 235.885 139.863C235.853 139.872 235.82 139.874 235.787 139.87C230.367 139.18 214.787 142.02 214.657 142.05H214.617Z" fill="black"/>
</g>
</svg>
