<svg width="120" height="113" viewBox="0 0 120 113" fill="none" xmlns="http://www.w3.org/2000/svg">
<g clip-path="url(#clip0)">
<path fill-rule="evenodd" clip-rule="evenodd" d="M113.089 98.9853C94.0233 90.1617 77.0045 47.8158 68.6962 27.2394L77.2021 11.117C77.4895 10.5873 77.5764 9.97165 77.4467 9.38305C77.3171 8.79446 76.9796 8.27231 76.4962 7.91231C75.5221 7.24878 74.2657 7.60878 73.6727 8.71702L66.6068 22.1076C65.0186 18.2817 63.9598 15.9594 63.5292 15.9594C63.1057 15.9594 62.068 18.2111 60.5221 21.9382L53.3857 8.41349C52.7927 7.30525 51.5221 6.94525 50.5621 7.60878C50.0787 7.96878 49.7413 8.49093 49.6117 9.07952C49.482 9.66812 49.5688 10.2837 49.8562 10.8135L58.4327 27.0629C50.1668 47.5264 33.1692 89.9217 14.1174 98.9147V84.8464H7.05859V105.882H39.9951C58.3621 92.3429 63.5292 48.8888 63.5292 48.8888C63.5292 48.8888 70.1856 92.3429 87.0633 105.882L120 105.861V84.8464H113.089V98.9853Z" fill="#25B0C3"/>
</g>
<defs>
<clipPath id="clip0">
<rect width="120" height="112.941" fill="white"/>
</clipPath>
</defs>
</svg>
